<svg xmlns="http://www.w3.org/2000/svg" xmlns:svg="http://www.w3.org/2000/svg" xmlns:xlink="http://www.w3.org/1999/xlink" version="1.0" height="770pt" width="1075pt" viewBox="310 277 1083 776" ><defs><style type="text/css">
            @font-face {
                font-family: 'noto_regular';
                src: url('https://app.creately.com/diagram/assets/fonts/noto/noto-regular.woff') format('woff'),
                     url('https://app.creately.com/diagram/assets/fonts/noto/noto-regular.woff2') format('woff2');
                font-weight: normal;
                font-style: normal;
            }
        p {
            margin: 0;
        }
        </style></defs><defs><style>
            span{ display: inline-block; }
        </style></defs><g id="3g2jv1vbtk"><g transform="translate(315 500)"><path d="M 0.75,0.75 L 149.25,0.75 L 149.25,74.25 L 0.75,74.25 Z" fill="rgb(171, 217, 198)" stroke="rgb(38, 38, 38)" stroke-width="1.5" stroke-linecap="round" stroke-linejoin="round"/><path d="M 124.5,5.5 L 144.5,5.5 L 144.5,26.5 L 124.5,26.5 Z" fill="rgb(171, 217, 198)" stroke="rgb(38, 38, 38)" stroke-width="1.5" stroke-linecap="round" stroke-linejoin="round"/><path d="M 118.5,9.5 L 130.5,9.5 L 130.5,14.5 L 118.5,14.5 Z" fill="rgb(171, 217, 198)" stroke="rgb(38, 38, 38)" stroke-width="1.5" stroke-linecap="round" stroke-linejoin="round"/><path d="M 118.5,17.5 L 130.5,17.5 L 130.5,22.5 L 118.5,22.5 Z" fill="rgb(171, 217, 198)" stroke="rgb(38, 38, 38)" stroke-width="1.5" stroke-linecap="round" stroke-linejoin="round"/></g><g transform="translate(339.75, 524.6) rotate(0, 0, 0)" width="87.99" height="16.5"><text text-decoration="none" x="0" fill="#363636" font-size="11pt" font-family="Lato"  y="16">LMS&#160;</text><text text-decoration="none" x="0" fill="#363636" font-size="11pt" font-family="Lato"  y="38">database&#160;</text><text text-decoration="none" x="66" fill="#4b4b4b" font-size="10pt" font-family="noto_regular"  y="38"></text></g></g><g id="bkneuzxuw7"><g transform="translate(580 785)"><path d="M 0.75,0.75 L 149.25,0.75 L 149.25,74.25 L 0.75,74.25 Z" fill="rgb(213, 221, 131)" stroke="rgb(38, 38, 38)" stroke-width="1.5" stroke-linecap="round" stroke-linejoin="round"/><path d="M 124.5,5.5 L 144.5,5.5 L 144.5,26.5 L 124.5,26.5 Z" fill="rgb(213, 221, 131)" stroke="rgb(38, 38, 38)" stroke-width="1.5" stroke-linecap="round" stroke-linejoin="round"/><path d="M 118.5,9.5 L 130.5,9.5 L 130.5,14.5 L 118.5,14.5 Z" fill="rgb(213, 221, 131)" stroke="rgb(38, 38, 38)" stroke-width="1.5" stroke-linecap="round" stroke-linejoin="round"/><path d="M 118.5,17.5 L 130.5,17.5 L 130.5,22.5 L 118.5,22.5 Z" fill="rgb(213, 221, 131)" stroke="rgb(38, 38, 38)" stroke-width="1.5" stroke-linecap="round" stroke-linejoin="round"/></g><g transform="translate(627.2, 809.6) rotate(0, 0, 0)" width="43.58" height="16.5"><text text-decoration="none" x="0" fill="#464646" font-size="11pt" font-family="Lato"  y="17">Search&#160;</text><text text-decoration="none" x="50" fill="#4b4b4b" font-size="10pt" font-family="noto_regular"  y="17"></text></g></g><g id="1wafzj0egw"><g transform="translate(645 560)"><path d="M 9.499999999999998,32.75 L 9.499999999999995,0" fill="rgb(255, 255, 255)" stroke="rgb(0, 0, 0)" stroke-width="5" stroke-linecap="round" stroke-linejoin="round"/><path d="M 9.499999999999998,32.75 L 9.499999999999995,1.5" fill="rgb(255, 255, 255)" stroke="rgb(54, 54, 54)" stroke-width="1.5" stroke-linecap="round" stroke-linejoin="round"/><path d="M 16.25,40.25 C 16.249999999999996,35.05384757729337 10.624999999999998,31.806252313101723 6.124999999999998,34.40432852445504 C 4.036542731880102,35.61009989039509 2.75,37.838457268119896 2.75,40.25 C 2.75,45.44615242270663 8.374999999999998,48.69374768689828 12.874999999999996,46.09567147554496 C 14.963457268119893,44.88990010960491 16.25,42.661542731880104 16.25,40.25" fill="rgb(255, 255, 255)" stroke="rgb(54, 54, 54)" stroke-width="1.5" stroke-linecap="round" stroke-linejoin="round"/><path d="M 18.75,49.5 L 0.25,49.5 L 0.24999999999999645,32 L 18.749999999999996,32 Z" fill="rgb(0, 0, 0)" stroke="rgb(0, 0, 0)" stroke-width="1" stroke-linecap="round" stroke-linejoin="round"/></g></g><g id="1n1n7k8yyi"><g><path d="M 655,785 L 655,697.625 L 654.75,697.625 L 654.5,697.625 L 654.5,607" fill="none" stroke="#363636" stroke-width="1.5" stroke-linecap="round" stroke-linejoin="round"/></g></g><g id="7cn896itgd"><g><path d="M 655,560 L 655,540 L 465,540" fill="none" stroke="#363636" stroke-width="1.5" stroke-linecap="round" stroke-linejoin="round"/></g></g><g id="35twr68dim"><g transform="translate(900 480)"><path d="M 0.75,0.75 L 149.25,0.75 L 149.25,74.25 L 0.75,74.25 Z" fill="rgb(149, 206, 230)" stroke="rgb(38, 38, 38)" stroke-width="1.5" stroke-linecap="round" stroke-linejoin="round"/><path d="M 124.5,5.5 L 144.5,5.5 L 144.5,26.5 L 124.5,26.5 Z" fill="rgb(149, 206, 230)" stroke="rgb(38, 38, 38)" stroke-width="1.5" stroke-linecap="round" stroke-linejoin="round"/><path d="M 118.5,9.5 L 130.5,9.5 L 130.5,14.5 L 118.5,14.5 Z" fill="rgb(149, 206, 230)" stroke="rgb(38, 38, 38)" stroke-width="1.5" stroke-linecap="round" stroke-linejoin="round"/><path d="M 118.5,17.5 L 130.5,17.5 L 130.5,22.5 L 118.5,22.5 Z" fill="rgb(149, 206, 230)" stroke="rgb(38, 38, 38)" stroke-width="1.5" stroke-linecap="round" stroke-linejoin="round"/></g><g transform="translate(951.95, 504.6) rotate(0, 0, 0)" width="35.46" height="16.5"><text text-decoration="none" x="0" fill="#363636" font-size="11pt" font-family="Lato"  y="17">Book&#160;</text><text text-decoration="none" x="40" fill="#4b4b4b" font-size="10pt" font-family="noto_regular"  y="17"></text></g></g><g id="2al3wri37x"><g><path d="M 900,540 L 655,540 L 655,560" fill="none" stroke="#363636" stroke-width="1.5" stroke-linecap="round" stroke-linejoin="round"/></g></g><g id="1287s3m5e0"><g transform="translate(1240 740)"><path d="M 0.75,0.75 L 149.25,0.75 L 149.25,74.25 L 0.75,74.25 Z" fill="rgb(165, 165, 167)" stroke="rgb(38, 38, 38)" stroke-width="1.5" stroke-linecap="round" stroke-linejoin="round"/><path d="M 124.5,5.5 L 144.5,5.5 L 144.5,26.5 L 124.5,26.5 Z" fill="rgb(165, 165, 167)" stroke="rgb(38, 38, 38)" stroke-width="1.5" stroke-linecap="round" stroke-linejoin="round"/><path d="M 118.5,9.5 L 130.5,9.5 L 130.5,14.5 L 118.5,14.5 Z" fill="rgb(165, 165, 167)" stroke="rgb(38, 38, 38)" stroke-width="1.5" stroke-linecap="round" stroke-linejoin="round"/><path d="M 118.5,17.5 L 130.5,17.5 L 130.5,22.5 L 118.5,22.5 Z" fill="rgb(165, 165, 167)" stroke="rgb(38, 38, 38)" stroke-width="1.5" stroke-linecap="round" stroke-linejoin="round"/></g><g transform="translate(1281.85, 764.6) rotate(0, 0, 0)" width="53.36" height="16.5"><text text-decoration="none" x="0" fill="#111111" font-size="11pt" font-family="Lato"  y="17">Member&#160;</text><text text-decoration="none" x="63" fill="#4b4b4b" font-size="10pt" font-family="noto_regular"  y="17"></text></g></g><g id="9z7tyream0"><g transform="translate(970.0000000000001 760)"><rect x="0" y="30" width="160" height="54.99999761581421" fill="rgba(194,216,167,1)" stroke="#262626" stroke-width="1.5" stroke-linecap="round" stroke-linejoin="round"/><path d="M 0,30 L 0,0 L 100,0 L 100,30" fill="rgba(194,216,167,1)" stroke="#262626" stroke-width="1.5" stroke-linecap="round" stroke-linejoin="round"/></g><g transform="translate(981.115, 763.7499988079071) rotate(0, 68.885, 38.75)" width="137.77" height="77.5"><text text-decoration="none" x="24.885000000000005" fill="#363636" font-size="10pt" font-family="Lato"  y="14">Package&#160;</text><text text-decoration="none" x="76.885" fill="#363636" font-size="10pt" font-family="Lato"  y="14">Name</text><text text-decoration="none" x="112.885" fill="#363636" font-size="10pt" font-family="Lato"  y="14"></text><text text-decoration="none" x="64.885" fill="#363636" font-size="10pt" font-family="Lato"  y="33">--</text><text text-decoration="none" x="72.885" fill="#363636" font-size="10pt" font-family="Lato"  y="33"></text><text text-decoration="none" x="33.885000000000005" fill="#363636" font-size="10pt" font-family="Lato"  y="52">Transaction</text><text text-decoration="none" x="103.885" fill="#363636" font-size="10pt" font-family="Lato"  y="52"></text><text text-decoration="none" x="10.385000000000005" fill="#363636" font-size="10pt" font-family="Lato"  y="71">//This&#160;</text><text text-decoration="none" x="47.385000000000005" fill="#363636" font-size="10pt" font-family="Lato"  y="71">is&#160;</text><text text-decoration="none" x="59.385000000000005" fill="#363636" font-size="10pt" font-family="Lato"  y="71">a&#160;</text><text text-decoration="none" x="69.385" fill="#363636" font-size="10pt" font-family="Lato"  y="71">comment</text><text text-decoration="none" x="127.385" fill="#363636" font-size="10pt" font-family="Lato"  y="71"></text><text text-decoration="none" x="11.885000000000005" fill="#363636" font-size="10pt" font-family="Lato"  y="90">//&#160;</text><text text-decoration="none" x="24.885000000000005" fill="#363636" font-size="10pt" font-family="Lato"  y="90">--&#160;</text><text text-decoration="none" x="35.885000000000005" fill="#363636" font-size="10pt" font-family="Lato"  y="90">this&#160;</text><text text-decoration="none" x="60.885000000000005" fill="#363636" font-size="10pt" font-family="Lato"  y="90">is&#160;</text><text text-decoration="none" x="72.885" fill="#363636" font-size="10pt" font-family="Lato"  y="90">a&#160;</text><text text-decoration="none" x="82.885" fill="#363636" font-size="10pt" font-family="Lato"  y="90">section&#160;</text><text text-decoration="none" x="51.885000000000005" fill="#363636" font-size="10pt" font-family="Lato"  y="112">break</text><text text-decoration="none" x="85.885" fill="#4b4b4b" font-size="10pt" font-family="noto_regular"  y="112"></text></g><g transform="translate(980.0000000000001, 795) rotate(0, 0, 0)" width="0.01" height="17.6"><text text-decoration="none" x="0.005" fill="#4b4b4b" font-size="10pt" font-family="noto_regular"  y="17"></text></g></g><g id="6h4yungr7s"><g transform="translate(1009.9999999999999 950)"><path d="M 69.27500000000002,15.200000000000012 L 58.65000000000002,4.800000000000003 L 3.4000000000000012,4.800000000000003 L 3.4000000000000012,95.20000000000007 L 81.60000000000002,95.20000000000007 L 81.60000000000002,26.800000000000022 Z" fill="rgb(112, 120, 178)" stroke="rgb(38, 38, 38)" stroke-width="0.5"/><path d="M 56.52500000000002,4.800000000000003 L 56.52500000000002,27.20000000000002 L 79.90000000000003,27.20000000000002" fill="rgb(112, 120, 178)" stroke="rgb(38, 38, 38)" stroke-width="0.5"/></g></g><g id="5mfub2e3dl"><g><path d="M 1053,950 L 1052.5,897.4999988079071 L 1051,897 L 1050,897.4999988079071 L 1050,845" fill="none" stroke="#363636" stroke-width="1.5" stroke-linecap="round" stroke-linejoin="round"/></g></g><g id="2m05hymgq4"><g><path d="M 930,555 L 930,895 L 660,895 L 390,895 L 390,575" fill="none" stroke="#363636" stroke-width="1.5" stroke-linecap="round" stroke-linejoin="round" stroke-dasharray="5 5"/><path d="M 390,575 L 383.50282485875704,581.9565217391304 M 390,575 L 396.49717514124296,581.9565217391304 Z" fill="rgb(255,255,255)" stroke="#363636" stroke-width="1.5" stroke-linecap="round" stroke-linejoin="round"/></g></g><g id="14oht67jtp"><g><path d="M 1050,760 L 1050,657.5 L 1013,658 L 975,657.5 L 975,555" fill="none" stroke="#363636" stroke-width="1.5" stroke-linecap="round" stroke-linejoin="round" stroke-dasharray="5 5"/><path d="M 975,555 L 969.25,563.695652173913 L 980.75,563.695652173913 Z" fill="rgb(54,54,54)" stroke="#363636" stroke-width="1.5" stroke-linecap="round" stroke-linejoin="round"/></g></g><g id="1arlsqy5yu"><g><path d="M 1130,802 L 1185,802.4999988079071 L 1185,790 L 1185,777.5 L 1240,778" fill="none" stroke="#363636" stroke-width="1.5" stroke-linecap="round" stroke-linejoin="round" stroke-dasharray="5 5"/><path d="M 1240,778 L 1231.304347826087,772.25 L 1231.304347826087,783.75 Z" fill="rgb(54,54,54)" stroke="#363636" stroke-width="1.5" stroke-linecap="round" stroke-linejoin="round"/></g></g><g id="lhpkyx6oxr"><g><path d="M 1315,740 L 1315,395 L 852.5,395 L 390,395 L 390,500" fill="none" stroke="#363636" stroke-width="1.5" stroke-linecap="round" stroke-linejoin="round" stroke-dasharray="5 5"/><path d="M 390,500 L 396.49717514124296,493.04347826086956 M 390,500 L 383.50282485875704,493.04347826086956 Z" fill="rgb(255,255,255)" stroke="#363636" stroke-width="1.5" stroke-linecap="round" stroke-linejoin="round"/></g></g><g id="2hf57cpi17"><g><path d="M 1095,1000 L 1167.5,1000 L 1168,889 L 1167.5,777.5 L 1240,778" fill="none" stroke="#363636" stroke-width="1.5" stroke-linecap="round" stroke-linejoin="round"/></g></g><g id="12gyhvy9xu"><g transform="translate(605 280)"><rect x="0" y="0" width="495.9983825683594" height="47.45988464355469" fill="rgba(255,255,255,0.01)" stroke="rgba(255,255,255,0.01)" stroke-width="NaN" stroke-linecap="round" stroke-linejoin="round"/></g><g transform="translate(618.0841912841797, 287.72494232177735) rotate(0, 234.915, 16.005)" width="469.83" height="32.01"><text text-decoration="none" x="15.414999999999992" fill="rgb(54, 54, 54)" font-weight="bold" font-size="21pt" font-family="Lato"  y="30">LIBRARY&#160;</text><text text-decoration="none" x="138.415" fill="rgb(54, 54, 54)" font-weight="bold" font-size="21pt" font-family="Lato"  y="30">MANAGEMENT&#160;</text><text text-decoration="none" x="349.41499999999996" fill="rgb(54, 54, 54)" font-weight="bold" font-size="21pt" font-family="Lato"  y="30">SYSTEM</text><text text-decoration="none" x="454.41499999999996" fill="#4b4b4b" font-size="10pt" font-family="noto_regular"  y="30"></text></g></g></svg>