<svg xmlns="http://www.w3.org/2000/svg" xmlns:svg="http://www.w3.org/2000/svg" xmlns:xlink="http://www.w3.org/1999/xlink" version="1.0" height="729.9999999999997pt" width="1100pt" viewBox="145 167 1108 735.9999999999997" ><defs><style type="text/css">
            @font-face {
                font-family: 'lt_regular';
                src: url('https://app.creately.com/diagram/assets/fonts/lato/lt-regular-webfont.woff2') format('woff2'),
                    url('https://app.creately.com/diagram/assets/fonts/lato/lt-regular-webfont.woff') format('woff');
                font-weight: normal;
                font-style: normal;
            }
            @font-face {
                font-family: 'noto_regular';
                src: url('https://app.creately.com/diagram/assets/fonts/noto/noto-regular.woff') format('woff'),
                     url('https://app.creately.com/diagram/assets/fonts/noto/noto-regular.woff2') format('woff2');
                font-weight: normal;
                font-style: normal;
            }
        p {
            margin: 0;
        }
        </style></defs><defs><style>
            span{ display: inline-block; }
        </style></defs><g id="uWhhQSK166e"><g transform="translate(150 170)"><rect x="0" y="0" width="1100" height="729.9999999999997" fill="white" stroke="#7e7e7e" stroke-width="2" stroke-linecap="round" stroke-linejoin="round"/></g></g><g id="1z51V8zyv8w"><g transform="translate(269.9999999999999 200)"><rect x="0" y="0" width="140.00000000000003" height="30" fill="rgb(241,191,49)" stroke="#f1bf31" stroke-width="2" stroke-linecap="round" stroke-linejoin="round" stroke-dasharray="0 0"/><path d="M 70.00000000000001,30 L 70.00000000000001,660" fill="rgb(241,191,49)" stroke="#f1bf31" stroke-width="2" stroke-linecap="round" stroke-linejoin="round" stroke-dasharray="3 3"/><rect x="0" y="0" width="140.00000000000003" height="660" fill="rgba(255,255,255,0.01)" stroke="rgba(255,255,255,0.01)" stroke-width="2" stroke-linecap="round" stroke-linejoin="round" stroke-dasharray="3 3"/></g><g transform="translate(290.9999999999999, 205) rotate(0, 49, 0)" width="98" height="20"><text text-decoration="none" x="18" fill="#ffffff" font-size="10pt" font-family="lt_regular"  y="14">Registered&#160;</text><text text-decoration="none" x="32" fill="#ffffff" font-size="10pt" font-family="lt_regular"  y="36">Users</text><text text-decoration="none" x="66" fill="#4b4b4b" font-size="10pt" font-family="noto_regular"  y="36"></text></g></g><g id="u50n1DHJhyY"><g transform="translate(650 200)"><rect x="0" y="0" width="130.00000000000006" height="48" fill="rgb(56,128,189)" stroke="#3880bd" stroke-width="2" stroke-linecap="round" stroke-linejoin="round" stroke-dasharray="0 0"/><path d="M 65.00000000000003,48 L 65.00000000000003,660" fill="rgb(56,128,189)" stroke="#3880bd" stroke-width="2" stroke-linecap="round" stroke-linejoin="round" stroke-dasharray="3 3"/><rect x="0" y="0" width="130.00000000000006" height="660" fill="rgba(255,255,255,0.01)" stroke="rgba(255,255,255,0.01)" stroke-width="2" stroke-linecap="round" stroke-linejoin="round" stroke-dasharray="3 3"/></g><g transform="translate(669, 205) rotate(0, 46, 0)" width="92" height="38"><text text-decoration="none" x="0.5" fill="#ffffff" font-size="10pt" font-family="lt_regular"  y="14">Online&#160;</text><text text-decoration="none" x="40.5" fill="#ffffff" font-size="10pt" font-family="lt_regular"  y="14">Payment&#160;</text><text text-decoration="none" x="24.5" fill="#ffffff" font-size="10pt" font-family="lt_regular"  y="36">System</text><text text-decoration="none" x="67.5" fill="#4b4b4b" font-size="10pt" font-family="noto_regular"  y="36"></text></g></g><g id="a5BduQT0bsy"><g transform="translate(1000 200.0000000000001)"><rect x="0" y="0" width="120" height="66" fill="rgb(209,83,77)" stroke="#d1534d" stroke-width="2" stroke-linecap="round" stroke-linejoin="round" stroke-dasharray="0 0"/><path d="M 60,66 L 60,660" fill="rgb(209,83,77)" stroke="#d1534d" stroke-width="2" stroke-linecap="round" stroke-linejoin="round" stroke-dasharray="3 3"/><rect x="0" y="0" width="120" height="660" fill="rgba(255,255,255,0.01)" stroke="rgba(255,255,255,0.01)" stroke-width="2" stroke-linecap="round" stroke-linejoin="round" stroke-dasharray="3 3"/></g><g transform="translate(1027, 205.0000000000001) rotate(0, 33, 0)" width="66" height="56"><text text-decoration="none" x="0" fill="#ffffff" font-size="10pt" font-family="lt_regular"  y="14">Credit&#160;</text><text text-decoration="none" x="39" fill="#ffffff" font-size="10pt" font-family="lt_regular"  y="14">Card&#160;</text><text text-decoration="none" x="7.5" fill="#ffffff" font-size="10pt" font-family="lt_regular"  y="33">Payment&#160;</text><text text-decoration="none" x="7.5" fill="#ffffff" font-size="10pt" font-family="lt_regular"  y="55">Gateway</text><text text-decoration="none" x="58.5" fill="#4b4b4b" font-size="10pt" font-family="noto_regular"  y="55"></text></g></g><g id="jN229ILQ1yR"><g transform="translate(330 280)"><rect x="0" y="0" width="20" height="580" fill="rgb(36,175,175)" stroke="#24AFAF" stroke-width="2" stroke-linecap="round" stroke-linejoin="round"/></g></g><g id="8stXKy7ee8h"><g transform="translate(1050 280)"><rect x="0" y="0" width="20" height="580" fill="rgb(36,175,175)" stroke="#24AFAF" stroke-width="2" stroke-linecap="round" stroke-linejoin="round"/></g></g><g id="9dTMm51g3g9"><g transform="translate(710 280)"><rect x="0" y="0" width="20" height="580" fill="rgb(36,175,175)" stroke="#24AFAF" stroke-width="2" stroke-linecap="round" stroke-linejoin="round"/></g></g><g id="FsdZheWlWCe"><mask id="9109f" x="336" y="296" width="388" height="28" maskUnits="userSpaceOnUse"><rect x="336" y="296" width="388" height="28" fill="white" /><rect x="477" y="297" width="106" height="26" fill="black" /></mask><g mask="url(#9109f)"><path d="M 350,310 L 710,310" fill="none" stroke="#9A9A9A" stroke-width="2" stroke-linecap="round" stroke-linejoin="round"/><path d="M 710,310 L 701.304347826087,304.25 L 701.304347826087,315.75 Z" fill="rgb(154,154,154)" stroke="#9A9A9A" stroke-width="2" stroke-linecap="round" stroke-linejoin="round"/></g><g transform="translate(480, 300)" width="100" height="20"><text text-decoration="none" x="0" fill="rgb(84, 84, 84)" font-size="10pt" font-family="lt_regular"  y="17">Create&#160;</text><text text-decoration="none" x="42" fill="rgb(84, 84, 84)" font-size="10pt" font-family="lt_regular"  y="17">new&#160;</text><text text-decoration="none" x="69" fill="rgb(84, 84, 84)" font-size="10pt" font-family="lt_regular"  y="17">order</text><text text-decoration="none" x="100" fill="#4b4b4b" font-size="10pt" font-family="noto_regular"  y="17"></text></g></g><g id="rDH5jdDdYrt"><mask id="218cf" x="336" y="336" width="388" height="28" maskUnits="userSpaceOnUse"><rect x="336" y="336" width="388" height="28" fill="white" /><rect x="458.5" y="337" width="143" height="26" fill="black" /></mask><g mask="url(#218cf)"><path d="M 350,350 L 710,350" fill="none" stroke="#9A9A9A" stroke-width="2" stroke-linecap="round" stroke-linejoin="round"/><path d="M 710,350 L 701.304347826087,344.25 L 701.304347826087,355.75 Z" fill="rgb(154,154,154)" stroke="#9A9A9A" stroke-width="2" stroke-linecap="round" stroke-linejoin="round"/></g><g transform="translate(461.5, 340)" width="137" height="20"><text text-decoration="none" x="0" fill="rgb(84, 84, 84)" font-size="10pt" font-family="lt_regular"  y="17">User&#160;</text><text text-decoration="none" x="31" fill="rgb(84, 84, 84)" font-size="10pt" font-family="lt_regular"  y="17">privacy&#160;</text><text text-decoration="none" x="75" fill="rgb(84, 84, 84)" font-size="10pt" font-family="lt_regular"  y="17">agreement</text><text text-decoration="none" x="137" fill="#4b4b4b" font-size="10pt" font-family="noto_regular"  y="17"></text></g></g><g id="bofeKdCHjgv"><mask id="89901" x="336" y="376" width="388" height="28" maskUnits="userSpaceOnUse"><rect x="336" y="376" width="388" height="28" fill="white" /><rect x="413.5" y="377" width="233" height="26" fill="black" /></mask><g mask="url(#89901)"><path d="M 350,390 L 710,390" fill="none" stroke="#9A9A9A" stroke-width="2" stroke-linecap="round" stroke-linejoin="round"/><path d="M 710,390 L 701.304347826087,384.25 L 701.304347826087,395.75 Z" fill="rgb(154,154,154)" stroke="#9A9A9A" stroke-width="2" stroke-linecap="round" stroke-linejoin="round"/></g><g transform="translate(416.5, 380)" width="227" height="20"><text text-decoration="none" x="2" fill="rgb(84, 84, 84)" font-size="10pt" font-family="lt_regular"  y="17">Select&#160;</text><text text-decoration="none" x="40" fill="rgb(84, 84, 84)" font-size="10pt" font-family="lt_regular"  y="17">subscription&#160;</text><text text-decoration="none" x="112" fill="rgb(84, 84, 84)" font-size="10pt" font-family="lt_regular"  y="17">contect&#160;</text><text text-decoration="none" x="158" fill="rgb(84, 84, 84)" font-size="10pt" font-family="lt_regular"  y="17">access&#160;</text><text text-decoration="none" x="198" fill="rgb(84, 84, 84)" font-size="10pt" font-family="lt_regular"  y="17">level</text><text text-decoration="none" x="225" fill="#4b4b4b" font-size="10pt" font-family="noto_regular"  y="17"></text></g></g><g id="ZtfURfzD9kH"><mask id="8896c" x="336" y="416" width="388" height="28" maskUnits="userSpaceOnUse"><rect x="336" y="416" width="388" height="28" fill="white" /><rect x="457.5" y="417" width="145" height="26" fill="black" /></mask><g mask="url(#8896c)"><path d="M 350,430 L 710,430" fill="none" stroke="#9A9A9A" stroke-width="2" stroke-linecap="round" stroke-linejoin="round"/><path d="M 710,430 L 701.304347826087,424.25 L 701.304347826087,435.75 Z" fill="rgb(154,154,154)" stroke="#9A9A9A" stroke-width="2" stroke-linecap="round" stroke-linejoin="round"/></g><g transform="translate(460.5, 420)" width="139" height="20"><text text-decoration="none" x="0.5" fill="rgb(84, 84, 84)" font-size="10pt" font-family="lt_regular"  y="17">Select&#160;</text><text text-decoration="none" x="38.5" fill="rgb(84, 84, 84)" font-size="10pt" font-family="lt_regular"  y="17">subscription&#160;</text><text text-decoration="none" x="110.5" fill="rgb(84, 84, 84)" font-size="10pt" font-family="lt_regular"  y="17">term</text><text text-decoration="none" x="138.5" fill="#4b4b4b" font-size="10pt" font-family="noto_regular"  y="17"></text></g></g><g id="HVILyiem2cc"><mask id="9b141" x="336" y="456" width="388" height="28" maskUnits="userSpaceOnUse"><rect x="336" y="456" width="388" height="28" fill="white" /><rect x="415.5" y="457" width="229" height="26" fill="black" /></mask><g mask="url(#9b141)"><path d="M 350,470 L 710,470" fill="none" stroke="#9A9A9A" stroke-width="2" stroke-linecap="round" stroke-linejoin="round"/><path d="M 710,470 L 701.304347826087,464.25 L 701.304347826087,475.75 Z" fill="rgb(154,154,154)" stroke="#9A9A9A" stroke-width="2" stroke-linecap="round" stroke-linejoin="round"/></g><g transform="translate(418.5, 460)" width="223" height="20"><text text-decoration="none" x="3" fill="rgb(84, 84, 84)" font-size="10pt" font-family="lt_regular"  y="17">Confirm&#160;</text><text text-decoration="none" x="52" fill="rgb(84, 84, 84)" font-size="10pt" font-family="lt_regular"  y="17">subscription&#160;</text><text text-decoration="none" x="124" fill="rgb(84, 84, 84)" font-size="10pt" font-family="lt_regular"  y="17">option&#160;</text><text text-decoration="none" x="163" fill="rgb(84, 84, 84)" font-size="10pt" font-family="lt_regular"  y="17">selections</text><text text-decoration="none" x="220" fill="#4b4b4b" font-size="10pt" font-family="noto_regular"  y="17"></text></g></g><g id="wipj3kzlzRs"><mask id="dcfde" x="336" y="496" width="388" height="28" maskUnits="userSpaceOnUse"><rect x="336" y="496" width="388" height="28" fill="white" /><rect x="457.5" y="497" width="145" height="26" fill="black" /></mask><g mask="url(#dcfde)"><path d="M 350,510 L 710,510" fill="none" stroke="#9A9A9A" stroke-width="2" stroke-linecap="round" stroke-linejoin="round"/><path d="M 710,510 L 701.304347826087,504.25 L 701.304347826087,515.75 Z" fill="rgb(154,154,154)" stroke="#9A9A9A" stroke-width="2" stroke-linecap="round" stroke-linejoin="round"/></g><g transform="translate(460.5, 500)" width="139" height="20"><text text-decoration="none" x="1" fill="rgb(84, 84, 84)" font-size="10pt" font-family="lt_regular"  y="17">Provide&#160;</text><text text-decoration="none" x="48" fill="rgb(84, 84, 84)" font-size="10pt" font-family="lt_regular"  y="17">payment&#160;</text><text text-decoration="none" x="101" fill="rgb(84, 84, 84)" font-size="10pt" font-family="lt_regular"  y="17">details</text><text text-decoration="none" x="138" fill="#4b4b4b" font-size="10pt" font-family="noto_regular"  y="17"></text></g></g><g id="h6yoSSde2xm"><mask id="b1e70" x="336" y="616" width="388" height="28" maskUnits="userSpaceOnUse"><rect x="336" y="616" width="388" height="28" fill="white" /><rect x="384" y="617" width="292" height="26" fill="black" /></mask><g mask="url(#b1e70)"><path d="M 710,630 L 350,630" fill="none" stroke="#9A9A9A" stroke-width="2" stroke-linecap="round" stroke-linejoin="round"/><path d="M 350,630 L 358.69565217391306,635.75 L 358.69565217391306,624.25 Z" fill="rgb(154,154,154)" stroke="#9A9A9A" stroke-width="2" stroke-linecap="round" stroke-linejoin="round"/></g><g transform="translate(387, 620)" width="286" height="20"><text text-decoration="none" x="3.5" fill="rgb(84, 84, 84)" font-size="10pt" font-family="lt_regular"  y="17">Online&#160;</text><text text-decoration="none" x="43.5" fill="rgb(84, 84, 84)" font-size="10pt" font-family="lt_regular"  y="17">payment&#160;</text><text text-decoration="none" x="96.5" fill="rgb(84, 84, 84)" font-size="10pt" font-family="lt_regular"  y="17">fail&#160;</text><text text-decoration="none" x="116.5" fill="rgb(84, 84, 84)" font-size="10pt" font-family="lt_regular"  y="17">and&#160;</text><text text-decoration="none" x="139.5" fill="rgb(84, 84, 84)" font-size="10pt" font-family="lt_regular"  y="17">go&#160;</text><text text-decoration="none" x="156.5" fill="rgb(84, 84, 84)" font-size="10pt" font-family="lt_regular"  y="17">back&#160;</text><text text-decoration="none" x="185.5" fill="rgb(84, 84, 84)" font-size="10pt" font-family="lt_regular"  y="17">create&#160;</text><text text-decoration="none" x="224.5" fill="rgb(84, 84, 84)" font-size="10pt" font-family="lt_regular"  y="17">new&#160;</text><text text-decoration="none" x="251.5" fill="rgb(84, 84, 84)" font-size="10pt" font-family="lt_regular"  y="17">order</text><text text-decoration="none" x="282.5" fill="#4b4b4b" font-size="10pt" font-family="noto_regular"  y="17"></text></g></g><g id="M2WaQM8fSgX"><mask id="20d65" x="336" y="716" width="388" height="28" maskUnits="userSpaceOnUse"><rect x="336" y="716" width="388" height="28" fill="white" /><rect x="432.5" y="717" width="195" height="26" fill="black" /></mask><g mask="url(#20d65)"><path d="M 710,730 L 350,730" fill="none" stroke="#9A9A9A" stroke-width="2" stroke-linecap="round" stroke-linejoin="round"/><path d="M 350,730 L 358.69565217391306,735.75 L 358.69565217391306,724.25 Z" fill="rgb(154,154,154)" stroke="#9A9A9A" stroke-width="2" stroke-linecap="round" stroke-linejoin="round"/></g><g transform="translate(435.5, 720)" width="189" height="20"><text text-decoration="none" x="2" fill="rgb(84, 84, 84)" font-size="10pt" font-family="lt_regular"  y="17">Order&#160;</text><text text-decoration="none" x="39" fill="rgb(84, 84, 84)" font-size="10pt" font-family="lt_regular"  y="17">success&#160;</text><text text-decoration="none" x="86" fill="rgb(84, 84, 84)" font-size="10pt" font-family="lt_regular"  y="17">confirmation&#160;</text><text text-decoration="none" x="160" fill="rgb(84, 84, 84)" font-size="10pt" font-family="lt_regular"  y="17">page</text><text text-decoration="none" x="187" fill="#4b4b4b" font-size="10pt" font-family="noto_regular"  y="17"></text></g></g><g id="2QJLx40Sene"><mask id="9b197" x="336" y="776" width="388" height="28" maskUnits="userSpaceOnUse"><rect x="336" y="776" width="388" height="28" fill="white" /><rect x="369" y="777" width="322" height="26" fill="black" /></mask><g mask="url(#9b197)"><path d="M 710,790 L 350,790" fill="none" stroke="#9A9A9A" stroke-width="2" stroke-linecap="round" stroke-linejoin="round"/><path d="M 350,790 L 358.69565217391306,795.75 L 358.69565217391306,784.25 Z" fill="rgb(154,154,154)" stroke="#9A9A9A" stroke-width="2" stroke-linecap="round" stroke-linejoin="round"/></g><g transform="translate(372, 780)" width="316" height="20"><text text-decoration="none" x="4.5" fill="rgb(84, 84, 84)" font-size="10pt" font-family="lt_regular"  y="17">Updated&#160;</text><text text-decoration="none" x="56.5" fill="rgb(84, 84, 84)" font-size="10pt" font-family="lt_regular"  y="17">user&#160;</text><text text-decoration="none" x="84.5" fill="rgb(84, 84, 84)" font-size="10pt" font-family="lt_regular"  y="17">database&#160;</text><text text-decoration="none" x="137.5" fill="rgb(84, 84, 84)" font-size="10pt" font-family="lt_regular"  y="17">and&#160;</text><text text-decoration="none" x="160.5" fill="rgb(84, 84, 84)" font-size="10pt" font-family="lt_regular"  y="17">grant&#160;</text><text text-decoration="none" x="193.5" fill="rgb(84, 84, 84)" font-size="10pt" font-family="lt_regular"  y="17">access&#160;</text><text text-decoration="none" x="233.5" fill="rgb(84, 84, 84)" font-size="10pt" font-family="lt_regular"  y="17">level&#160;</text><text text-decoration="none" x="263.5" fill="rgb(84, 84, 84)" font-size="10pt" font-family="lt_regular"  y="17">&#x26;&#160;</text><text text-decoration="none" x="275.5" fill="rgb(84, 84, 84)" font-size="10pt" font-family="lt_regular"  y="17">period</text><text text-decoration="none" x="311.5" fill="#4b4b4b" font-size="10pt" font-family="noto_regular"  y="17"></text></g></g><g id="ie0TnlWbsFb"><mask id="45047" x="716" y="536" width="348" height="28" maskUnits="userSpaceOnUse"><rect x="716" y="536" width="348" height="28" fill="white" /><rect x="844.5" y="537" width="91" height="26" fill="black" /></mask><g mask="url(#45047)"><path d="M 730,550 L 1050,550" fill="none" stroke="#9A9A9A" stroke-width="2" stroke-linecap="round" stroke-linejoin="round"/><path d="M 1050,550 L 1041.304347826087,544.25 L 1041.304347826087,555.75 Z" fill="rgb(154,154,154)" stroke="#9A9A9A" stroke-width="2" stroke-linecap="round" stroke-linejoin="round"/></g><g transform="translate(847.5, 540)" width="85" height="20"><text text-decoration="none" x="0.5" fill="rgb(84, 84, 84)" font-size="10pt" font-family="lt_regular"  y="17">make&#160;</text><text text-decoration="none" x="34.5" fill="rgb(84, 84, 84)" font-size="10pt" font-family="lt_regular"  y="17">payment</text><text text-decoration="none" x="84.5" fill="#4b4b4b" font-size="10pt" font-family="noto_regular"  y="17"></text></g></g><g id="NtTdeH1QKDI"><mask id="28dd8" x="716" y="576" width="348" height="28" maskUnits="userSpaceOnUse"><rect x="716" y="576" width="348" height="28" fill="white" /><rect x="748.5" y="577" width="283" height="26" fill="black" /></mask><g mask="url(#28dd8)"><path d="M 1050,590 L 730,590" fill="none" stroke="#9A9A9A" stroke-width="2" stroke-linecap="round" stroke-linejoin="round"/><path d="M 730,590 L 738.695652173913,595.75 L 738.695652173913,584.25 Z" fill="rgb(154,154,154)" stroke="#9A9A9A" stroke-width="2" stroke-linecap="round" stroke-linejoin="round"/></g><g transform="translate(751.5, 580)" width="277" height="20"><text text-decoration="none" x="2.5" fill="rgb(84, 84, 84)" font-size="10pt" font-family="lt_regular"  y="17">Notify&#160;</text><text text-decoration="none" x="42.5" fill="rgb(84, 84, 84)" font-size="10pt" font-family="lt_regular"  y="17">user&#160;</text><text text-decoration="none" x="70.5" fill="rgb(84, 84, 84)" font-size="10pt" font-family="lt_regular"  y="17">payment&#160;</text><text text-decoration="none" x="123.5" fill="rgb(84, 84, 84)" font-size="10pt" font-family="lt_regular"  y="17">not&#160;</text><text text-decoration="none" x="145.5" fill="rgb(84, 84, 84)" font-size="10pt" font-family="lt_regular"  y="17">success&#160;</text><text text-decoration="none" x="192.5" fill="rgb(84, 84, 84)" font-size="10pt" font-family="lt_regular"  y="17">and&#160;</text><text text-decoration="none" x="215.5" fill="rgb(84, 84, 84)" font-size="10pt" font-family="lt_regular"  y="17">error&#160;</text><text text-decoration="none" x="247.5" fill="rgb(84, 84, 84)" font-size="10pt" font-family="lt_regular"  y="17">code</text><text text-decoration="none" x="274.5" fill="#4b4b4b" font-size="10pt" font-family="noto_regular"  y="17"></text></g></g><g id="YM91cd1g9gd"><mask id="8700d" x="716" y="676" width="348" height="28" maskUnits="userSpaceOnUse"><rect x="716" y="676" width="348" height="28" fill="white" /><rect x="804" y="677" width="172" height="26" fill="black" /></mask><g mask="url(#8700d)"><path d="M 1050,690 L 730,690" fill="none" stroke="#9A9A9A" stroke-width="2" stroke-linecap="round" stroke-linejoin="round"/><path d="M 730,690 L 738.695652173913,695.75 L 738.695652173913,684.25 Z" fill="rgb(154,154,154)" stroke="#9A9A9A" stroke-width="2" stroke-linecap="round" stroke-linejoin="round"/></g><g transform="translate(807, 680)" width="166" height="20"><text text-decoration="none" x="0.5" fill="rgb(84, 84, 84)" font-size="10pt" font-family="lt_regular"  y="17">Notify&#160;</text><text text-decoration="none" x="40.5" fill="rgb(84, 84, 84)" font-size="10pt" font-family="lt_regular"  y="17">user&#160;</text><text text-decoration="none" x="68.5" fill="rgb(84, 84, 84)" font-size="10pt" font-family="lt_regular"  y="17">payment&#160;</text><text text-decoration="none" x="121.5" fill="rgb(84, 84, 84)" font-size="10pt" font-family="lt_regular"  y="17">success</text><text text-decoration="none" x="165.5" fill="#4b4b4b" font-size="10pt" font-family="noto_regular"  y="17"></text></g></g><g id="JXMpPWDG9Xy"><mask id="b9b3c" x="136" y="276" width="208" height="28" maskUnits="userSpaceOnUse"><rect x="136" y="276" width="208" height="28" fill="white" /><rect x="168.5" y="277" width="143" height="26" fill="black" /></mask><g mask="url(#b9b3c)"><path d="M 150,290 L 330,290" fill="none" stroke="#9A9A9A" stroke-width="2" stroke-linecap="round" stroke-linejoin="round"/><path d="M 330,290 L 321.30434782608694,284.25 L 321.30434782608694,295.75 Z" fill="rgb(154,154,154)" stroke="#9A9A9A" stroke-width="2" stroke-linecap="round" stroke-linejoin="round"/></g><g transform="translate(171.5, 280)" width="137" height="20"><text text-decoration="none" x="1" fill="rgb(84, 84, 84)" font-size="10pt" font-family="lt_regular"  y="17">User&#160;</text><text text-decoration="none" x="32" fill="rgb(84, 84, 84)" font-size="10pt" font-family="lt_regular"  y="17">loged&#160;</text><text text-decoration="none" x="66" fill="rgb(84, 84, 84)" font-size="10pt" font-family="lt_regular"  y="17">into&#160;</text><text text-decoration="none" x="91" fill="rgb(84, 84, 84)" font-size="10pt" font-family="lt_regular"  y="17">website</text><text text-decoration="none" x="136" fill="#4b4b4b" font-size="10pt" font-family="noto_regular"  y="17"></text></g></g><g id="UCtAZAXEjri"><mask id="f4d17" x="146" y="836" width="198" height="28" maskUnits="userSpaceOnUse"><rect x="146" y="836" width="198" height="28" fill="white" /><rect x="185.5" y="828" width="119" height="44" fill="black" /></mask><g mask="url(#f4d17)"><path d="M 330,850 L 160,850" fill="none" stroke="#9A9A9A" stroke-width="2" stroke-linecap="round" stroke-linejoin="round"/><path d="M 160,850 L 168.69565217391303,855.75 L 168.69565217391303,844.25 Z" fill="rgb(154,154,154)" stroke="#9A9A9A" stroke-width="2" stroke-linecap="round" stroke-linejoin="round"/></g><g transform="translate(188.5, 831)" width="113" height="38"><text text-decoration="none" x="2.5" fill="rgb(84, 84, 84)" font-size="10pt" font-family="lt_regular"  y="14">User&#160;</text><text text-decoration="none" x="33.5" fill="rgb(84, 84, 84)" font-size="10pt" font-family="lt_regular"  y="14">secure&#160;</text><text text-decoration="none" x="74.5" fill="rgb(84, 84, 84)" font-size="10pt" font-family="lt_regular"  y="14">logout</text><text text-decoration="none" x="110.5" fill="rgb(84, 84, 84)" font-size="10pt" font-family="lt_regular"  y="14"></text><text text-decoration="none" x="1" fill="rgb(84, 84, 84)" font-size="10pt" font-family="lt_regular"  y="36">or&#160;</text><text text-decoration="none" x="19" fill="rgb(84, 84, 84)" font-size="10pt" font-family="lt_regular"  y="36">session&#160;</text><text text-decoration="none" x="64" fill="rgb(84, 84, 84)" font-size="10pt" font-family="lt_regular"  y="36">time&#160;</text><text text-decoration="none" x="93" fill="rgb(84, 84, 84)" font-size="10pt" font-family="lt_regular"  y="36">out</text><text text-decoration="none" x="112" fill="#4b4b4b" font-size="10pt" font-family="noto_regular"  y="36"></text></g></g><g id="DjshrcK3Jux"><mask id="431f7" x="1056" y="536" width="198" height="28" maskUnits="userSpaceOnUse"><rect x="1056" y="536" width="198" height="28" fill="white" /><rect x="1096.5" y="528" width="117" height="44" fill="black" /></mask><g mask="url(#431f7)"><path d="M 1070,550 L 1240,550" fill="none" stroke="#9A9A9A" stroke-width="2" stroke-linecap="round" stroke-linejoin="round"/><path d="M 1240,550 L 1231.304347826087,544.25 L 1231.304347826087,555.75 Z" fill="rgb(154,154,154)" stroke="#9A9A9A" stroke-width="2" stroke-linecap="round" stroke-linejoin="round"/></g><g transform="translate(1099.5, 531)" width="111" height="38"><text text-decoration="none" x="1" fill="rgb(84, 84, 84)" font-size="10pt" font-family="lt_regular"  y="14">Validate&#160;</text><text text-decoration="none" x="50" fill="rgb(84, 84, 84)" font-size="10pt" font-family="lt_regular"  y="14">credit&#160;</text><text text-decoration="none" x="86" fill="rgb(84, 84, 84)" font-size="10pt" font-family="lt_regular"  y="14">card</text><text text-decoration="none" x="110" fill="rgb(84, 84, 84)" font-size="10pt" font-family="lt_regular"  y="14"></text><text text-decoration="none" x="23.5" fill="rgb(84, 84, 84)" font-size="10pt" font-family="lt_regular"  y="36">with&#160;</text><text text-decoration="none" x="54.5" fill="rgb(84, 84, 84)" font-size="10pt" font-family="lt_regular"  y="36">banks</text><text text-decoration="none" x="87.5" fill="#4b4b4b" font-size="10pt" font-family="noto_regular"  y="36"></text></g></g><g id="zAMtTXuQhzA"><mask id="1d422" x="1056" y="596" width="198" height="28" maskUnits="userSpaceOnUse"><rect x="1056" y="596" width="198" height="28" fill="white" /><rect x="1109" y="597" width="92" height="26" fill="black" /></mask><g mask="url(#1d422)"><path d="M 1070,610 L 1240,610" fill="none" stroke="#9A9A9A" stroke-width="2" stroke-linecap="round" stroke-linejoin="round"/><path d="M 1240,610 L 1231.304347826087,604.25 L 1231.304347826087,615.75 Z" fill="rgb(154,154,154)" stroke="#9A9A9A" stroke-width="2" stroke-linecap="round" stroke-linejoin="round"/></g><g transform="translate(1112, 600)" width="86" height="20"><text text-decoration="none" x="1.5" fill="rgb(84, 84, 84)" font-size="10pt" font-family="lt_regular"  y="17">Authorized&#160;</text><text text-decoration="none" x="67.5" fill="rgb(84, 84, 84)" font-size="10pt" font-family="lt_regular"  y="17">fail</text><text text-decoration="none" x="84.5" fill="#4b4b4b" font-size="10pt" font-family="noto_regular"  y="17"></text></g></g><g id="gQJzGPIHST5"><mask id="ad7b9" x="1056" y="676" width="198" height="28" maskUnits="userSpaceOnUse"><rect x="1056" y="676" width="198" height="28" fill="white" /><rect x="1096" y="677" width="118" height="26" fill="black" /></mask><g mask="url(#ad7b9)"><path d="M 1240,690 L 1070,690" fill="none" stroke="#9A9A9A" stroke-width="2" stroke-linecap="round" stroke-linejoin="round"/><path d="M 1070,690 L 1078.695652173913,695.75 L 1078.695652173913,684.25 Z" fill="rgb(154,154,154)" stroke="#9A9A9A" stroke-width="2" stroke-linecap="round" stroke-linejoin="round"/></g><g transform="translate(1099, 680)" width="112" height="20"><text text-decoration="none" x="1" fill="rgb(84, 84, 84)" font-size="10pt" font-family="lt_regular"  y="17">Authorized&#160;</text><text text-decoration="none" x="67" fill="rgb(84, 84, 84)" font-size="10pt" font-family="lt_regular"  y="17">success</text><text text-decoration="none" x="111" fill="#4b4b4b" font-size="10pt" font-family="noto_regular"  y="17"></text></g></g></svg>